<svg width="38" height="38" viewBox="0 0 38 38" fill="none" xmlns="http://www.w3.org/2000/svg">
<path d="M16.6907 28.6592C16.1283 29.9468 14.3463 29.9468 13.784 28.6592L12.3212 25.3088C11.0195 22.3275 8.67648 19.9542 5.75383 18.6568L1.72763 16.8697C0.447559 16.3015 0.447561 14.4393 1.72763 13.8711L5.62808 12.1397C8.62588 10.809 11.0109 8.34786 12.2904 5.26471L13.7722 1.69439C14.322 0.36945 16.1527 0.369447 16.7025 1.69439L18.1842 5.26474C19.4637 8.34786 21.8487 10.809 24.8465 12.1397L28.747 13.8711C30.027 14.4393 30.027 16.3015 28.747 16.8697L24.7208 18.6568C21.7982 19.9542 19.4552 22.3275 18.1533 25.3088L16.6907 28.6592ZM6.56593 15.3704C10.3757 17.0615 13.4734 19.8412 15.2373 23.6658C17.0013 19.8412 20.099 17.0615 23.9087 15.3704C20.0535 13.6591 16.946 10.744 15.2373 6.85131C13.5286 10.744 10.4211 13.6591 6.56593 15.3704ZM31.3357 36.8163L31.747 35.8735C32.4803 34.1925 33.8012 32.854 35.4492 32.1218L36.7165 31.5587C37.402 31.2542 37.402 30.258 36.7165 29.9535L35.5202 29.4218C33.8297 28.6708 32.4852 27.2828 31.7643 25.5447L31.342 24.5258C31.0475 23.8158 30.0658 23.8158 29.7713 24.5258L29.349 25.5447C28.6283 27.2828 27.2838 28.6708 25.5933 29.4218L24.3968 29.9535C23.7115 30.258 23.7115 31.2542 24.3968 31.5587L25.6642 32.1218C27.3123 32.854 28.633 34.1925 29.3663 35.8735L29.7778 36.8163C30.0788 37.5065 31.0345 37.5065 31.3357 36.8163ZM29.6242 30.7447L30.5617 29.8137L31.4797 30.7447L30.5617 31.6495L29.6242 30.7447Z" fill="#85D3E9"/>
</svg>
