<svg width="160" height="51" viewBox="0 0 160 51" fill="none" xmlns="http://www.w3.org/2000/svg">
<path d="M47.5326 28.2354C47.5184 28.2354 47.509 28.2354 47.4948 28.2354C47.3249 28.2163 47.2068 28.0636 47.2257 27.8919C47.3296 26.976 47.3862 26.0363 47.3862 25.1061C47.3862 21.9339 46.7725 18.8572 45.5686 15.9569C44.4025 13.1568 42.7359 10.6381 40.6067 8.46766C38.4821 6.30199 36.0035 4.59425 33.2417 3.39216C30.3854 2.14714 27.3497 1.50317 24.2148 1.47455C24.0449 1.47455 23.9079 1.33144 23.9127 1.15971C23.9127 0.987987 24.0496 0.85442 24.2195 0.85442C24.2195 0.85442 24.2195 0.85442 24.2243 0.85442C27.4394 0.883041 30.5601 1.5461 33.4872 2.81974C36.3199 4.05045 38.8646 5.80589 41.0457 8.0288C43.2269 10.2517 44.9407 12.8372 46.1351 15.7136C47.3721 18.6902 48 21.8481 48 25.1061C48 26.0602 47.9433 27.0237 47.8348 27.9635C47.8159 28.1161 47.6837 28.2354 47.5326 28.2354Z" fill="#0084AA"/>
<path d="M23.8324 49.353C20.6078 49.3292 17.4872 48.6757 14.5459 47.402C11.7085 46.1713 9.15904 44.4206 6.97315 42.1977C4.78725 39.9748 3.06875 37.3846 1.86958 34.5082C0.627913 31.5268 0 28.3642 0 25.1061C0 24.1759 0.0519321 23.241 0.155798 22.3203C0.174682 22.1486 0.32576 22.0293 0.495721 22.0484C0.665683 22.0675 0.783713 22.2201 0.764828 22.3919C0.665684 23.2887 0.61375 24.1998 0.61375 25.1061C0.61375 28.2831 1.2275 31.3646 2.43612 34.2697C3.60224 37.0745 5.27825 39.5932 7.4075 41.7636C9.53674 43.9293 12.0201 45.6371 14.7867 46.8344C17.6477 48.0746 20.6928 48.7138 23.8324 48.7377C24.0024 48.7377 24.1393 48.8808 24.1393 49.0477C24.1393 49.2147 24.0024 49.353 23.8324 49.353Z" fill="#0084AA"/>
<path d="M23.4689 45.7563C23.3886 45.7563 23.3556 45.7468 23.332 45.7372C23.247 45.7086 23.0959 45.618 23.044 45.3556C22.959 44.9311 23.162 44.2155 23.7946 43.6479C24.3801 43.1279 25.2912 42.6891 26.5565 42.0785C27.0097 41.8591 27.5291 41.611 28.072 41.3343C29.8944 40.4137 31.0558 39.5837 31.9906 38.9158L32.203 38.7632C32.5949 38.4818 32.9395 38.1383 33.1897 37.833C32.8876 38 32.5429 38.1955 32.2313 38.372C31.6742 38.6869 31.0935 39.016 30.6214 39.2641C29.3656 39.9271 27.7698 40.013 27.2033 39.4453C27.0192 39.2593 26.8539 39.0589 26.8917 38.8109C26.9295 38.5533 27.1514 38.4341 27.3686 38.3196C27.3922 38.3053 27.4205 38.2909 27.4488 38.2766C27.4866 38.2576 27.5385 38.2289 27.5999 38.1955C28.1711 37.8855 29.9133 36.9505 31.2541 36.0537C31.9245 35.6053 32.6799 34.8946 33.4824 34.1361C34.4503 33.225 35.5456 32.1946 36.7778 31.3408C39.3792 29.5376 42.193 28.1829 44.4969 27.6248C46.0124 27.2575 46.9944 27.4292 47.5515 27.6343C47.712 27.6916 47.7923 27.8728 47.7356 28.0302C47.679 28.1924 47.4996 28.2735 47.3438 28.2163C46.8669 28.0398 46.0124 27.8967 44.6433 28.2258C42.4432 28.7601 39.6341 30.1148 37.1272 31.8512C35.9327 32.6812 34.8563 33.6925 33.9026 34.5893C33.0812 35.362 32.3069 36.0919 31.594 36.5689C30.2248 37.4848 28.4686 38.4293 27.8879 38.7441C27.8265 38.7775 27.7746 38.8061 27.7415 38.8252C27.7132 38.8395 27.6849 38.8586 27.6565 38.8729C27.6282 38.8872 27.5904 38.9063 27.5574 38.9254C27.5763 38.9492 27.6046 38.9779 27.6377 39.0112C27.8926 39.2688 29.1437 39.3547 30.3429 38.7203C30.8056 38.477 31.3815 38.1526 31.9386 37.8378C33.473 36.9696 33.7516 36.8313 33.9262 36.8313C34.0773 36.8313 34.2048 36.9267 34.252 37.0698C34.2803 37.1604 34.3464 37.3751 33.7752 38.1049C33.5674 38.3673 33.1378 38.8729 32.5618 39.2784L32.3494 39.431C31.3957 40.1084 30.2154 40.9527 28.3506 41.8972C27.7982 42.1739 27.2836 42.4267 26.8256 42.6461C25.6548 43.2138 24.7247 43.6574 24.2054 44.1201C23.771 44.5065 23.653 44.9168 23.6436 45.1266C24.1818 45.0408 25.7822 44.6496 27.1703 44.101C27.7226 43.8816 32.6326 41.8924 34.6863 39.6838C34.8044 39.5598 34.9979 39.555 35.1207 39.6695C35.2434 39.7888 35.2482 39.9844 35.1349 40.1084C34.3087 40.9957 32.9726 41.9401 31.1596 42.918C29.4364 43.8482 27.8454 44.497 27.3969 44.6735C26.4102 45.0646 25.4045 45.3461 24.8899 45.4796C24.0024 45.7038 23.6341 45.7563 23.4689 45.7563Z" fill="#0084AA"/>
<path d="M23.5727 48.0269C23.3603 48.0269 23.1667 47.9029 23.077 47.7026C22.9354 47.3877 22.7513 46.7724 23.0629 46.1999C23.2895 45.7897 23.5775 45.451 23.7757 45.2411C23.8938 45.1171 24.0873 45.1123 24.2101 45.2316C24.3328 45.3508 24.3376 45.5464 24.2195 45.6704C24.0449 45.8517 23.7946 46.1475 23.6011 46.5005C23.4311 46.8105 23.5302 47.1778 23.6199 47.3973C23.856 47.3686 24.3564 47.2875 25.3148 47.0347C26.92 46.6054 29.8094 45.3985 31.5657 44.5256C33.3786 43.624 35.6731 41.9402 35.6967 41.9211C35.8336 41.8209 36.0271 41.8495 36.1263 41.9879C36.2254 42.1262 36.1971 42.3218 36.0602 42.4219C35.9658 42.4935 33.6996 44.1583 31.8395 45.0789C30.0549 45.9662 27.1136 47.1969 25.4754 47.631C24.4556 47.9029 23.9079 47.9935 23.6341 48.0174C23.6058 48.0222 23.5869 48.0269 23.5727 48.0269Z" fill="#0084AA"/>
<path d="M24.2667 49.8396C24.0024 49.8396 23.7616 49.6583 23.6955 49.3864C23.6247 49.0907 23.568 48.6661 23.7097 48.3179C23.8607 47.9459 24.1676 47.3114 24.5736 47.216C24.7389 47.1778 24.9041 47.278 24.9419 47.445C24.9796 47.6072 24.8852 47.7694 24.7247 47.8171C24.6586 47.8552 24.465 48.0842 24.2762 48.5517C24.2195 48.6995 24.2195 48.938 24.2809 49.2147L25.9239 48.8474C28.4922 48.2702 31.3107 46.9727 32.7648 46.2524C34.6297 45.327 36.8203 43.5763 36.8392 43.5573C36.9714 43.4523 37.165 43.4714 37.2688 43.605C37.3727 43.7385 37.3538 43.9341 37.2216 44.0391C37.1319 44.1106 34.9602 45.847 33.0339 46.8058C31.5562 47.5404 28.6858 48.8617 26.0561 49.4485L24.3895 49.8205C24.3517 49.8348 24.3092 49.8396 24.2667 49.8396Z" fill="#0084AA"/>
<path d="M28.4167 50.2069C28.3458 50.2069 28.3081 50.1974 28.2797 50.1878C27.6849 50.0066 27.8218 48.8999 27.8548 48.6804C27.8784 48.5135 28.039 48.3942 28.2042 48.4228C28.3694 48.4467 28.4875 48.6089 28.4591 48.7758C28.4167 49.0668 28.4261 49.4437 28.478 49.5868C28.7991 49.5438 29.9935 49.1861 32.2502 48.1939C33.8696 47.4831 35.7203 46.3049 37.4624 44.8738C39.365 43.314 41.0741 41.5156 42.4054 39.6791C43.4771 38.1955 45.0304 35.6864 45.8613 33.4969C46.6922 31.3121 47.2068 27.9778 47.2116 27.9444C47.2352 27.7774 47.3957 27.6582 47.5609 27.6868C47.7262 27.7106 47.8442 27.8728 47.8159 28.0398C47.797 28.1781 47.2871 31.4743 46.4326 33.7211C45.5781 35.9678 43.9965 38.5342 42.8964 40.0464C41.532 41.9258 39.7852 43.7624 37.8448 45.3556C36.0602 46.8153 34.1576 48.0269 32.491 48.7615C31.0935 49.3769 30.1682 49.7203 29.6347 49.9016C28.8888 50.1497 28.5724 50.2069 28.4167 50.2069Z" fill="#0084AA"/>
<path d="M1.94039 22.8927C1.32192 22.8927 0.85925 22.7878 0.542933 22.6685C0.382414 22.6113 0.302153 22.43 0.358807 22.2726C0.41546 22.1104 0.594867 22.0293 0.750665 22.0866C1.2275 22.2631 2.08203 22.4062 3.45116 22.077C5.65122 21.5428 8.46031 20.188 10.9672 18.4517C12.1617 17.6217 13.2381 16.6104 14.1918 15.7136C15.0133 14.9408 15.7875 14.211 16.5004 13.734C17.8696 12.8181 19.6306 11.8736 20.2066 11.5587C20.2679 11.5254 20.3199 11.4967 20.3529 11.4776C20.3812 11.4633 20.4096 11.4443 20.4379 11.4299C20.4662 11.4156 20.504 11.3966 20.537 11.3775C20.5181 11.3536 20.4898 11.325 20.4568 11.2916C20.2018 11.034 18.9507 10.9482 17.7515 11.5826C17.2889 11.8259 16.7129 12.1502 16.1605 12.4651C14.6261 13.3333 14.3476 13.4716 14.1729 13.4716C14.0218 13.4716 13.8944 13.3762 13.8472 13.2331C13.8188 13.1424 13.7527 12.9278 14.324 12.1979C14.5317 11.9356 14.9613 11.4299 15.5373 11.0245L15.7498 10.8718C16.7035 10.1945 17.8837 9.35014 19.7486 8.40564C20.301 8.12896 20.8156 7.87615 21.2735 7.65672C22.4444 7.08906 23.3697 6.64543 23.8938 6.18272C24.3281 5.79634 24.4461 5.3861 24.4556 5.17621C23.9174 5.26208 22.3169 5.65323 20.9289 6.20181C20.3765 6.42124 15.4665 8.41041 13.4128 10.619C13.2948 10.743 13.1012 10.7478 12.9785 10.6333C12.8557 10.5141 12.851 10.3185 12.9643 10.1945C13.7905 9.3072 15.1266 8.36271 16.9395 7.38482C18.6627 6.45463 20.2538 5.80588 20.7023 5.62938C21.689 5.23823 22.6946 4.95678 23.2092 4.82322C24.517 4.48453 24.6869 4.54177 24.7577 4.56562C24.8427 4.59425 24.9938 4.68488 25.0457 4.94724C25.1307 5.37179 24.9277 6.08732 24.2951 6.65497C23.7096 7.17493 22.7985 7.61379 21.5332 8.22437C21.08 8.4438 20.5606 8.69185 20.0177 8.96852C18.1953 9.88917 17.0339 10.7192 16.0991 11.387L15.8867 11.5397C15.4948 11.8211 15.1502 12.1646 14.9 12.4698C15.2021 12.3029 15.5468 12.1073 15.8584 11.9308C16.4155 11.616 16.9962 11.2868 17.4683 11.0388C18.7241 10.3757 20.3199 10.2899 20.8864 10.8575C21.0705 11.0436 21.2358 11.2439 21.198 11.492C21.1602 11.7495 20.9383 11.8688 20.7212 11.9833C20.6976 11.9976 20.6692 12.0119 20.6409 12.0262C20.6031 12.0453 20.5559 12.0739 20.4898 12.1073C19.9186 12.4174 18.1765 13.3523 16.8356 14.2491C16.1652 14.6975 15.4099 15.4083 14.6073 16.1668C13.6394 17.0779 12.5441 18.1082 11.3119 18.9621C8.71053 20.7652 5.89672 22.12 3.5928 22.6781C2.95072 22.8307 2.40307 22.8927 1.94039 22.8927Z" fill="#0084AA"/>
<path d="M12.2278 8.43904C12.1334 8.43904 12.039 8.39611 11.9776 8.31024C11.8784 8.17191 11.9068 7.97633 12.0437 7.87616C12.1381 7.8046 14.4043 6.13981 16.2644 5.21916C18.049 4.3319 20.9903 3.10119 22.6285 2.6671C23.5869 2.40951 24.1204 2.31888 24.3989 2.28548C24.6775 2.25209 24.9419 2.41428 25.0457 2.67664C25.1685 2.97716 25.3243 3.5639 25.0268 4.10293C24.8002 4.51317 24.5122 4.85185 24.314 5.06174C24.1959 5.18576 24.0024 5.19054 23.8796 5.07128C23.7569 4.95203 23.7521 4.75645 23.8702 4.63242C24.0449 4.44638 24.2951 4.1554 24.4886 3.8024C24.6633 3.49234 24.5547 3.11073 24.4745 2.91038C24.4745 2.90561 24.4698 2.90561 24.465 2.90561C24.2054 2.93423 23.7002 3.02486 22.7796 3.26814C21.1744 3.69746 18.285 4.90432 16.5288 5.77727C14.7158 6.67884 12.4214 8.36272 12.3978 8.3818C12.3553 8.41996 12.2939 8.43904 12.2278 8.43904Z" fill="#0084AA"/>
<path d="M11.0664 6.80763C10.9767 6.80763 10.887 6.76947 10.8256 6.68838C10.7217 6.55481 10.7406 6.35924 10.8775 6.25429C10.9673 6.18274 13.139 4.44639 15.0652 3.48758C16.8829 2.58601 19.5645 1.39346 22.0431 0.840114C23.0865 0.611145 23.568 0.501432 23.7852 0.44896C24.0496 0.391718 24.3092 0.549133 24.3801 0.811494C24.4698 1.1311 24.5406 1.59858 24.3895 1.97066C24.2384 2.34273 23.9315 2.97717 23.5255 3.07257C23.3603 3.11073 23.195 3.01056 23.1573 2.8436C23.1195 2.68141 23.2139 2.51923 23.3744 2.47153C23.4405 2.43336 23.6341 2.20439 23.823 1.73691C23.8843 1.58904 23.8796 1.35053 23.8182 1.07386C23.5633 1.1311 23.077 1.24081 22.1753 1.44116C20.8392 1.73691 18.573 2.42859 15.3343 4.03615C13.4695 4.96157 11.2788 6.71223 11.26 6.73131C11.1986 6.78378 11.1325 6.80763 11.0664 6.80763Z" fill="#0084AA"/>
<path d="M0.467395 22.6208C0.457953 22.6208 0.448509 22.6208 0.439066 22.6208C0.269105 22.6065 0.146356 22.4539 0.16052 22.2869C0.169962 22.1963 0.363527 20.0783 1.65712 16.5913C2.54942 14.1871 4.25376 11.5969 5.18855 10.266C7.01092 7.68057 9.38566 5.42904 12.2561 3.5782C14.9283 1.85139 17.6335 0.725624 19.437 0.0291746C19.5834 -0.0280678 19.7344 0.000553424 19.8572 0.100728C20.2207 0.39648 20.2726 1.44592 20.2443 1.62719C20.2207 1.79415 20.0602 1.9134 19.895 1.88478C19.7297 1.86093 19.6117 1.69874 19.64 1.53179C19.6636 1.38868 19.5928 0.887813 19.5125 0.663614C17.7374 1.35529 15.1407 2.45244 12.5866 4.09816C9.78696 5.90606 7.46415 8.10035 5.68899 10.6238C3.54559 13.6672 2.60136 15.8042 2.22839 16.806C1.21806 19.525 0.830922 21.6143 0.769547 22.3394C0.755384 22.5016 0.623193 22.6208 0.467395 22.6208Z" fill="#0084AA"/>
<path d="M37.0564 31.6795C37.0139 31.6795 36.9761 31.6699 36.9336 31.6556C36.7778 31.5888 36.707 31.4076 36.7731 31.2501C36.7873 31.212 37.859 28.6218 37.8354 24.715C37.8354 24.4717 38.0336 24.1664 38.6096 23.3173C39.6105 21.8433 41.2912 19.3819 41.617 16.8775C41.8389 15.165 41.5556 13.2283 40.8569 11.7066C39.8938 9.60774 38.2225 8.24346 35.8808 7.65196C33.44 7.0366 31.3249 7.17971 29.9227 7.27034C29.4128 7.30373 29.0115 7.33236 28.7094 7.31328C27.8737 7.26557 26.7831 7.16063 26.311 6.95551C26.2119 6.91258 26.1599 6.9412 26.141 6.95074C26.0513 7.00321 25.9475 7.17494 25.9239 7.49931C25.8908 7.9334 26.5471 8.2053 26.7406 8.24347L27.6046 8.41996L27.1561 8.83497C27.1419 8.84928 25.5745 10.2994 25.1638 10.9243C24.9655 11.2248 24.3045 12.2981 24.1818 13.4525C24.0779 14.3875 24.3376 15.8376 24.5028 16.6199C24.5453 16.8155 24.5831 16.9538 24.6114 17.0636C24.72 17.4547 24.7247 17.5835 24.5406 18.0415C24.3753 18.4565 23.9835 18.8047 23.7002 19.0575C23.6199 19.1291 23.5114 19.2245 23.4736 19.2722C23.4547 19.358 23.4925 19.6681 23.7333 19.8112C24.1346 20.0402 24.3376 20.1594 24.3376 20.1594L24.55 20.2834L24.4745 20.522C24.4745 20.5267 24.2715 21.2041 24.3753 22.0484C24.517 23.1551 25.1024 24.0281 26.1174 24.6434C27.2552 25.3351 28.4544 25.5164 29.6866 25.192C30.6214 24.9439 31.221 24.486 31.2305 24.4812C31.3626 24.3763 31.5562 24.4049 31.6601 24.5385C31.7639 24.672 31.7403 24.8676 31.6034 24.9726C31.5751 24.9964 30.9141 25.5068 29.866 25.7883C28.8982 26.0506 27.4063 26.1556 25.7964 25.1777C24.3092 24.2761 23.8702 23.0072 23.7616 22.1009C23.6813 21.4474 23.7616 20.8893 23.823 20.584C23.7238 20.5267 23.5916 20.4504 23.4217 20.355C22.8882 20.0497 22.756 19.3628 22.9023 19.0241C22.959 18.8906 23.0912 18.7761 23.2847 18.5996C23.5208 18.3897 23.8466 18.0987 23.9599 17.822C24.0826 17.512 24.0826 17.512 24.0071 17.2353C23.9788 17.1208 23.9363 16.9682 23.8891 16.7583C23.7191 15.9426 23.4453 14.4161 23.5586 13.3953C23.7002 12.1026 24.4225 10.9195 24.6444 10.5904C24.956 10.1182 25.8058 9.27383 26.3204 8.77773C25.8483 8.59169 25.244 8.15283 25.3007 7.46592C25.3385 6.97936 25.5226 6.61206 25.8153 6.43556C26.0325 6.30199 26.2921 6.29245 26.5471 6.40216C26.8398 6.53096 27.6565 6.64544 28.733 6.71223C28.9926 6.72654 29.3798 6.70269 29.8708 6.6693C31.3107 6.5739 33.4824 6.42602 36.0177 7.06522C38.5105 7.69489 40.3753 9.21181 41.4045 11.4586C42.1505 13.0852 42.4526 15.1412 42.2166 16.9682C41.8719 19.6204 40.144 22.1629 39.1053 23.6798C38.8126 24.1091 38.4821 24.5957 38.4397 24.7388C38.4585 28.7792 37.3727 31.3932 37.3255 31.503C37.2877 31.6079 37.1744 31.6795 37.0564 31.6795Z" fill="#0084AA"/>
<path d="M32.7129 20.188C32.694 20.188 32.6846 20.188 32.6846 20.188C32.5146 20.1833 32.3824 20.0402 32.3871 19.8684C32.3919 19.6967 32.5335 19.5632 32.7035 19.5679C32.7129 19.5679 33.2889 19.5775 33.6996 19.2531C34.1576 18.8953 34.3464 18.3468 34.2662 17.6265C34.252 17.4833 34.1812 17.3784 34.049 17.3069C33.8649 17.2019 33.6335 17.2067 33.5391 17.2544C33.3455 17.345 33.0764 17.6551 32.949 17.8316C32.8498 17.9699 32.6562 18.0033 32.5193 17.9031C32.3824 17.803 32.3494 17.6121 32.4485 17.469C32.491 17.407 32.8734 16.8823 33.2747 16.6915C33.5769 16.5484 34.0159 16.5818 34.3417 16.7678C34.6439 16.9395 34.828 17.221 34.8657 17.5597C34.9696 18.4946 34.6958 19.2483 34.0679 19.7444C33.5438 20.1642 32.864 20.188 32.7129 20.188Z" fill="#0084AA"/>
<path d="M29.4128 33.0676C28.6999 33.0676 27.7226 33.0008 26.6132 32.7384C25.2865 32.4284 24.0449 31.9037 22.9212 31.1834C21.519 30.2818 20.301 29.0702 19.3001 27.5771C18.8657 26.9283 18.2189 26.2844 17.7893 25.8598C17.558 25.6308 17.4447 25.5164 17.3833 25.4305C17.2369 25.2254 16.8026 24.5289 16.576 23.7371C16.2455 22.5779 16.4674 21.6382 17.2181 21.0228C18.1576 20.2548 19.2529 20.8416 19.725 21.0944C19.7439 21.1039 19.7675 21.1182 19.7864 21.1278C19.81 21.0801 19.8383 21.0228 19.8714 20.956C19.9988 20.7175 20.2113 20.4075 20.5087 20.3168C20.6692 20.2691 20.8345 20.2834 20.9808 20.3645C21.519 20.6555 21.4671 21.7908 21.4152 22.2631C21.3538 22.8641 21.5379 23.4699 21.5662 23.5606C21.722 23.8849 23.6105 25.9934 26.3582 26.852C29.0682 27.6963 31.2918 26.8663 31.3107 26.8568C31.4712 26.7948 31.6459 26.8759 31.7073 27.0381C31.7687 27.2002 31.6884 27.3767 31.5326 27.4387C31.4335 27.4769 29.0965 28.3546 26.1788 27.4435C23.2659 26.5372 21.1933 24.2713 20.995 23.7895L20.9855 23.7705C20.9761 23.7371 20.7212 22.9786 20.8014 22.1963C20.877 21.4331 20.7637 20.9847 20.6834 20.9036H20.6787C20.6503 20.9083 20.5323 20.999 20.4048 21.2423C20.3718 21.3043 20.3482 21.3615 20.3246 21.4044C20.2727 21.5142 20.2302 21.6096 20.1452 21.6811C19.9847 21.8195 19.7958 21.7813 19.7344 21.7717C19.6495 21.7574 19.5692 21.7145 19.4323 21.6382C18.8044 21.3043 18.1481 21.0562 17.6005 21.5046C17.0481 21.9578 16.9017 22.6495 17.1614 23.5653C17.3597 24.2618 17.7516 24.8962 17.8743 25.0632C17.9121 25.1109 18.0679 25.2683 18.219 25.4162C18.6391 25.8312 19.3379 26.5276 19.81 27.2289C20.7589 28.6456 21.9109 29.7952 23.2375 30.6491C24.2998 31.3312 25.4706 31.8321 26.7265 32.1279C28.8746 32.6335 30.5364 32.3759 30.5506 32.3759C30.7158 32.3473 30.8764 32.4618 30.9 32.6335C30.9283 32.8004 30.815 32.9626 30.645 32.9865C30.612 32.996 30.154 33.0676 29.4128 33.0676Z" fill="#0084AA"/>
<path d="M19.7486 36.297C19.7156 36.297 19.6872 36.2923 19.6542 36.2827C19.4937 36.2302 19.404 36.0585 19.4559 35.8916C19.4606 35.8772 19.843 34.6418 19.9469 32.9436C20.0413 31.3933 19.9186 29.1226 18.7855 27.1239C18.0395 25.8074 17.0292 25.44 15.051 25.7597C11.9351 26.2653 8.35645 29.5186 6.96371 30.8972C6.77014 31.088 6.50104 31.1881 6.23193 31.1691C5.9581 31.15 5.70788 31.0164 5.54264 30.797C4.57953 29.5424 4.00354 29.2562 3.84775 29.3707C3.73444 29.4661 3.36619 30.2961 3.51254 31.2979C3.67778 32.4141 5.33963 34.3126 5.90617 34.5225C6.17055 34.5893 6.94955 34.5798 8.04486 34.0884C8.3895 33.931 8.76247 33.7974 9.15433 33.6543C10.4857 33.163 12.1381 32.5572 13.8094 30.7731C13.9274 30.6491 14.121 30.6443 14.2437 30.7588C14.3665 30.8781 14.3712 31.0737 14.2579 31.1977C12.4875 33.0867 10.7595 33.7259 9.36678 34.2363C8.98436 34.3794 8.62084 34.5082 8.29508 34.6561C6.68988 35.3764 5.76926 35.1283 5.73149 35.1188L5.71732 35.114C4.91 34.8373 3.10652 32.7289 2.90823 31.3933C2.74771 30.3295 3.08764 29.1656 3.48894 28.8698C3.85247 28.6027 4.33402 28.7124 4.91001 29.199C5.24521 29.4804 5.6229 29.8954 6.02892 30.4201C6.09029 30.5012 6.18 30.5489 6.27442 30.5537C6.37357 30.5585 6.46799 30.5251 6.5388 30.4583C7.97404 29.0415 11.666 25.6833 14.9566 25.1538C16.5807 24.8915 18.2331 24.9106 19.319 26.8234C20.5323 28.9605 20.6645 31.3694 20.5606 33.0104C20.4521 34.7801 20.0602 36.0347 20.0413 36.0871C20.0035 36.2112 19.8808 36.297 19.7486 36.297Z" fill="#0084AA"/>
<path d="M19.9563 45.4606C18.9602 45.4606 17.9876 45.3365 17.0623 45.0933C15.391 44.6544 13.9416 43.8244 13.0918 42.8226C12.1145 41.673 11.5432 40.3135 11.4016 38.7918C11.2883 37.585 11.4394 36.2732 11.8501 34.8993C12.5488 32.5715 13.7386 30.8733 13.7905 30.8017C13.8896 30.6634 14.0785 30.63 14.2201 30.7302C14.357 30.8304 14.3901 31.0212 14.2909 31.1643C14.2768 31.1881 13.1012 32.8672 12.4355 35.0997C12.0484 36.3972 11.9068 37.6231 12.0153 38.7489C12.1475 40.137 12.6669 41.3725 13.5592 42.4267C14.3334 43.3378 15.6648 44.0915 17.2181 44.5018C18.5494 44.8547 20.6928 45.1123 23.3556 44.3682C23.5208 44.3205 23.686 44.4207 23.7333 44.5828C23.7805 44.7498 23.6813 44.9168 23.5208 44.9645C22.3264 45.2936 21.1272 45.4606 19.9563 45.4606Z" fill="#0084AA"/>
<path d="M80.6472 44.0738C77.6561 44.0738 74.6461 43.1614 72.4677 41.4644C70.7902 40.1549 69.3821 38.7415 68.2764 37.2524C67.2888 35.9194 66.5138 34.4965 65.9704 33.0121C65.1246 30.6816 64.8269 28.214 65.0348 25.2501C65.049 25.0468 64.8269 23.6806 64.3496 22.5792C64.2929 22.4468 64.2031 22.2672 64.1039 22.0639C63.7117 21.2698 63.0502 19.9367 62.743 18.3153C62.3697 16.3487 62.6107 14.4531 63.4518 12.6852C64.6237 10.227 66.9911 8.56304 70.1239 7.99577C71.7589 7.69796 73.5498 7.73578 75.1564 8.09032C76.7677 8.44959 78.1428 9.12085 79.0264 9.97647C80.9071 11.7964 81.6112 14.0135 81.1859 16.7506C81.0819 17.4265 80.7606 18.0222 80.5291 18.4571C80.4771 18.5563 80.4251 18.6509 80.3873 18.7312C80.2645 18.9771 80.3023 19.2229 80.496 19.4923C80.5574 19.5774 80.6614 19.6767 80.7748 19.7807C81.0819 20.0643 81.46 20.4141 81.3985 20.9294C81.3324 21.4872 80.633 21.8134 80.2267 21.9552C80.2408 22.2719 80.2314 22.8392 80.0613 23.4726C79.8203 24.3566 79.1966 25.5431 77.623 26.1671C75.8558 26.8668 74.2964 26.5784 73.2994 26.2144C72.222 25.8221 71.5604 25.2642 71.5321 25.2406C71.4045 25.1319 71.3856 24.9381 71.499 24.8057C71.6077 24.6781 71.8014 24.6592 71.9337 24.7726C71.9385 24.7773 72.5528 25.2879 73.5309 25.6424C74.8304 26.1104 76.1298 26.0915 77.3962 25.5904C78.4736 25.165 79.1682 24.3944 79.4706 23.3025C79.6974 22.4752 79.6029 21.7803 79.6029 21.7756L79.5651 21.5061L79.825 21.4352C80.2645 21.317 80.7701 21.0381 80.7937 20.8538C80.8173 20.6505 80.5858 20.433 80.359 20.225C80.2314 20.1069 80.0943 19.984 79.9998 19.8469C79.6738 19.3978 79.6171 18.9014 79.8392 18.4523C79.8864 18.3625 79.9337 18.2633 79.9904 18.164C80.2125 17.7433 80.4913 17.2233 80.5811 16.6513C80.7464 15.5782 80.7323 14.628 80.5385 13.7488C80.2597 12.5103 79.6124 11.3852 78.6012 10.4114C76.9189 8.78522 73.3986 8.01941 70.2326 8.5914C67.2982 9.12085 65.0868 10.6666 64.0047 12.9404C62.176 16.7789 63.8487 20.1589 64.652 21.7803C64.756 21.993 64.8458 22.1774 64.9119 22.3239C65.4175 23.4868 65.668 24.9522 65.6444 25.2832C65.4412 28.162 65.7294 30.5493 66.5469 32.7947C67.0667 34.2223 67.8133 35.5979 68.7678 36.879C69.8404 38.3208 71.2108 39.7011 72.8457 40.9727C75.9739 43.412 80.9213 44.1494 84.8811 42.7596C86.6011 42.1545 87.9431 41.2327 88.8645 40.0084C89.6064 39.0299 90.0837 37.8481 90.2869 36.5055C90.6223 34.2932 90.1262 32.53 89.6489 31.438C89.5686 31.2489 89.6111 31.0362 89.7576 30.8991C89.9041 30.7572 90.1215 30.7242 90.301 30.814C90.7074 31.0125 91.3973 31.2867 92.3896 31.4569C93.0606 31.5703 93.7127 31.5467 94.2845 31.5231C94.7286 31.5042 95.1445 31.4852 95.5036 31.542C96.4865 31.6838 96.9259 31.8823 97.2141 32.01C97.4126 32.0998 97.5118 32.1423 97.7009 32.1376C98.0411 32.1281 98.5183 31.8398 98.6932 31.4238C98.7404 31.3103 98.8255 31.1307 98.9342 30.8991C99.1421 30.4547 99.4209 29.8496 99.643 29.3013C99.9974 28.4173 99.969 28.2093 99.9643 28.1857C99.832 27.7082 99.109 26.4933 98.6507 26.3231C98.4994 26.2664 98.4475 26.3042 98.4286 26.3184C98.334 26.3846 98.2868 26.5642 98.2915 26.6257V26.6493L98.2868 26.6729C98.2254 27.2118 98.0789 28.1573 97.819 28.4315C97.4882 28.7813 96.7842 28.8333 96.3211 28.682C96.2077 28.6442 95.7777 28.4693 94.9649 28.1337C93.2591 27.434 90.4003 26.2617 89.5497 26.0348L89.5072 26.0253C88.3022 25.7039 86.8043 25.3068 85.3536 26.2286C83.5155 27.3962 83.3028 31.3434 83.4352 32.5725C83.5391 33.5463 84.04 36.2597 84.6448 37.191C84.7393 37.3328 84.6968 37.5219 84.555 37.6164C84.4133 37.711 84.2243 37.6684 84.1298 37.5266C83.421 36.4394 82.9248 33.5652 82.8209 32.6387C82.7594 32.0951 82.7641 30.7289 83.024 29.3769C83.3737 27.5617 84.0447 26.3279 85.0229 25.7086C86.7003 24.645 88.4109 25.0988 89.6631 25.4344L89.7056 25.4439C90.594 25.6802 93.4764 26.862 95.1964 27.5664C95.8485 27.8358 96.4156 28.0675 96.5148 28.1006C96.8267 28.2046 97.2472 28.1384 97.3701 28.0107C97.4599 27.8878 97.6016 27.2449 97.6725 26.6209C97.6772 26.4035 97.7812 26.0253 98.0694 25.8221C98.2254 25.7133 98.49 25.6093 98.8633 25.7511C99.6004 26.03 100.399 27.4718 100.555 28.0297C100.678 28.474 100.276 29.4715 99.487 31.1638C99.3831 31.386 99.298 31.5656 99.2555 31.6649C98.9767 32.3314 98.249 32.7427 97.7103 32.7569C97.3843 32.7663 97.1858 32.6765 96.959 32.5772C96.6849 32.4543 96.3069 32.2889 95.4091 32.1565C95.1067 32.114 94.7381 32.1281 94.3081 32.147C93.7032 32.1707 93.0228 32.199 92.2856 32.0761C91.4398 31.9296 90.7925 31.7121 90.3388 31.5231C90.8019 32.7001 91.2177 34.4586 90.8917 36.6143C90.6696 38.0608 90.1545 39.3324 89.3512 40.396C88.3542 41.7149 86.9177 42.7123 85.0796 43.3552C83.6903 43.8374 82.1688 44.0738 80.6472 44.0738Z" fill="#0084AA"/>
<path d="M76.7866 35.7964C76.4181 35.7964 76.04 35.7728 75.6431 35.7255C74.0696 35.5317 72.8883 35.0212 72.5622 34.8699C71.9149 34.5674 70.9273 33.9812 69.9775 33.343C69.3774 32.9412 68.3331 32.199 68.0637 31.7925C67.9692 31.6507 68.0117 31.4616 68.1535 31.3671C68.2953 31.2725 68.4843 31.3151 68.5788 31.4569C68.9001 31.9485 71.4801 33.6834 72.8268 34.3121C74.0838 34.903 77.0654 35.735 79.3383 34.6572C81.3371 33.7118 81.8853 31.991 82.2444 30.8518C82.2916 30.7052 82.3342 30.5634 82.3814 30.4358C82.5326 30.0009 82.6886 29.0224 82.5846 26.8148C82.5799 26.7486 82.5799 26.6966 82.5799 26.6729C82.5752 26.5453 82.6271 26.2806 82.7689 25.6093C82.8776 25.0893 83.0382 24.3093 83.0335 24.1108C83.0193 23.4679 82.32 23.0708 82.0412 23.0235C81.4742 22.9195 81.2662 23.1465 80.7984 24.0399C80.4629 24.6875 80.203 26.6588 80.1322 27.3631L80.1227 27.4104C79.8061 28.578 78.0719 29.6794 76.0968 29.3816C74.2492 29.1075 72.5717 27.7177 72.5008 27.6562C72.3685 27.5475 72.3543 27.3537 72.463 27.2213C72.5717 27.0889 72.7654 27.0748 72.8977 27.1835C72.9213 27.2024 74.5185 28.5213 76.1913 28.7718C76.9568 28.8853 77.7459 28.7624 78.4074 28.4173C78.9839 28.1195 79.3997 27.694 79.5226 27.2686C79.5557 26.9708 79.8108 24.593 80.2503 23.7515C80.6425 22.9952 81.0489 22.2152 82.1452 22.4137C83.0997 22.5839 83.6242 23.4963 83.6431 24.0919C83.6478 24.3424 83.5391 24.905 83.3643 25.7322C83.2887 26.1057 83.1894 26.5689 83.1894 26.6635C83.1894 26.6824 83.1942 26.7249 83.1942 26.7864C83.2839 28.6395 83.2036 29.9347 82.9579 30.6391C82.9154 30.7572 82.8728 30.8943 82.8256 31.0409C82.457 32.2038 81.838 34.1514 79.5982 35.215C78.7807 35.6026 77.8357 35.7964 76.7866 35.7964Z" fill="#0084AA"/>
<path d="M79.9951 49.1035C76.7583 49.1035 73.616 48.4701 70.6532 47.2174C67.7944 46.0072 65.2285 44.277 63.0265 42.0742C60.8245 39.8713 59.0951 37.3044 57.8854 34.4445C56.6332 31.4852 56 28.3416 56 25.1035C56 21.8654 56.6332 18.7218 57.8854 15.7626C59.0951 12.9026 60.8245 10.3357 63.0265 8.13286C65.2285 5.92999 67.7944 4.19983 70.6532 2.98966C73.6112 1.73696 76.7536 1.10352 79.9904 1.10352C82.5184 1.10352 84.9756 1.48641 87.291 2.23331L87.3477 2.25222C88.6472 2.67767 89.7576 3.49548 90.5562 4.6111C91.3548 5.72672 91.7706 7.04088 91.7612 8.41177C91.7517 9.39975 91.695 10.2648 91.591 10.9881C91.1988 13.6779 90.3483 15.252 88.4487 16.812C88.3589 16.8876 88.2644 16.9633 88.1699 17.0389C86.4972 18.4051 83.9738 20.4661 83.2887 23.3545C83.2509 23.5199 83.0855 23.6239 82.9201 23.5814C82.7547 23.5435 82.6507 23.3781 82.6933 23.2126C83.4257 20.121 86.0482 17.9796 87.7872 16.5615C87.8817 16.4858 87.9762 16.4102 88.066 16.3346C89.8521 14.8691 90.6176 13.4462 90.9909 10.8983C91.0902 10.2034 91.1469 9.36666 91.1563 8.40704C91.1658 7.16852 90.7877 5.97726 90.0695 4.97036C89.3465 3.96347 88.3448 3.22603 87.1682 2.8384L87.1162 2.81949C84.8622 2.08677 82.4712 1.71805 80.0046 1.71805C76.8481 1.71805 73.7861 2.33731 70.9036 3.55693C68.1204 4.734 65.6207 6.42161 63.4707 8.56776C61.3254 10.7139 59.6385 13.2193 58.4619 16.0037C57.2428 18.8872 56.6237 21.9505 56.6237 25.1082C56.6237 28.266 57.2428 31.3292 58.4619 34.2128C59.6385 36.9972 61.3254 39.4978 63.4707 41.6487C65.616 43.7949 68.1204 45.4825 70.9036 46.6596C73.7861 47.8792 76.8481 48.4984 80.0046 48.4984C83.1564 48.4984 86.2136 47.8839 89.0866 46.6785C91.8651 45.5108 94.3601 43.8374 96.5054 41.7007C98.6507 39.5688 100.338 37.0775 101.519 34.3074C102.743 31.438 103.371 28.3842 103.385 25.2311C103.4 22.409 102.918 19.6483 101.949 17.02C101.013 14.4862 99.6571 12.1463 97.9135 10.0663C97.8899 10.0379 97.8663 10.0096 97.8426 9.9812C97.1291 9.13976 96.0281 8.80885 94.9696 9.11139C93.9064 9.41866 93.1457 10.2932 92.985 11.3946C92.9567 11.5837 92.9283 11.7681 92.8952 11.9383C92.6259 13.4226 92.366 14.4626 91.8368 15.3608C91.3359 16.2164 90.6082 16.9255 89.441 17.9276C87.1398 19.913 86.2798 20.9767 85.7033 21.9599C85.675 22.0072 85.6466 22.0545 85.6182 22.1017C85.2213 22.7635 84.6212 23.761 84.6354 26.3704C84.6354 26.5406 84.4983 26.6777 84.3282 26.6777C84.1581 26.6777 84.0211 26.5406 84.0211 26.3704C84.0022 23.5861 84.6826 22.4563 85.089 21.7803C85.1174 21.733 85.1457 21.6858 85.1693 21.6432C85.7789 20.6079 86.672 19.4971 89.0394 17.4596C91.2461 15.5593 91.7233 14.9164 92.2904 11.8248C92.3187 11.6594 92.3471 11.4844 92.3754 11.3001C92.5692 9.95756 93.5001 8.88921 94.7995 8.51576C96.0895 8.14232 97.4362 8.54886 98.3104 9.57466C98.3341 9.60302 98.3577 9.63139 98.3813 9.65975C100.172 11.7964 101.566 14.1931 102.525 16.7931C103.518 19.4876 104.014 22.3239 104 25.217C103.986 28.4504 103.338 31.5845 102.081 34.5296C100.867 37.3753 99.1374 39.928 96.9354 42.1167C94.7334 44.3054 92.1722 46.0261 89.3229 47.2221C86.3648 48.4748 83.232 49.1035 79.9951 49.1035Z" fill="#0084AA"/>
<path d="M136 48.9952C132.762 48.9952 129.618 48.364 126.658 47.1112C123.802 45.9054 121.234 44.1768 119.029 41.9819C116.825 39.7871 115.097 37.2201 113.888 34.3705C112.637 31.4173 112 28.2804 112 25.0493C112 21.8183 112.633 18.6814 113.888 15.7282C115.097 12.8786 116.829 10.3163 119.029 8.11676C121.234 5.91718 123.802 4.1933 126.658 2.98753C129.618 1.73937 132.762 1.10352 136 1.10352C139.238 1.10352 142.382 1.73466 145.342 2.98753C148.198 4.1933 150.766 5.92189 152.971 8.11676C155.175 10.3163 156.903 12.8786 158.112 15.7282C159.363 18.6814 160 21.8183 160 25.0493C160 28.2804 159.367 31.4173 158.112 34.3705C156.903 37.2201 155.171 39.7823 152.971 41.9819C150.766 44.1815 148.198 45.9054 145.342 47.1112C142.382 48.364 139.243 48.9952 136 48.9952ZM136 1.72053C132.842 1.72053 129.778 2.33755 126.899 3.55274C124.113 4.72553 121.611 6.41173 119.463 8.55479C117.316 10.6979 115.63 13.1942 114.45 15.9731C113.232 18.8509 112.614 21.903 112.614 25.0541C112.614 28.2051 113.232 31.2619 114.45 34.135C115.625 36.9139 117.316 39.4102 119.463 41.5533C121.611 43.6964 124.113 45.3779 126.899 46.5554C129.783 47.7706 132.842 48.3876 136 48.3876C139.158 48.3876 142.222 47.7706 145.101 46.5554C147.887 45.3826 150.389 43.6964 152.537 41.5533C154.684 39.4102 156.37 36.9139 157.55 34.135C158.768 31.2572 159.386 28.2051 159.386 25.0541C159.386 21.903 158.768 18.8462 157.55 15.9731C156.375 13.1942 154.684 10.6979 152.537 8.55479C150.389 6.41173 147.887 4.73024 145.101 3.55274C142.222 2.33755 139.158 1.72053 136 1.72053Z" fill="#0084AA"/>
<path d="M143.124 47.8365C142.972 47.8365 142.84 47.7235 142.821 47.568C142.642 46.155 142.34 43.4562 142.312 41.299C142.279 38.3787 142.312 35.6516 142.312 35.6281L142.316 35.4114L142.519 35.3408C142.548 35.3314 145.375 34.3375 146.725 33.2165C147.415 32.6419 148.071 32.0485 148.651 31.5209C149.256 30.9746 149.822 30.4565 150.327 30.0608C151.22 29.3543 152.636 28.4924 153.641 28.2569C153.684 28.2475 153.712 28.238 153.736 28.2286C153.646 28.0591 153.169 27.7199 152.603 27.654C151.687 27.5504 148.977 28.2616 148.472 28.5206C148.321 28.596 148.085 28.7326 147.811 28.888C147.089 29.2978 146.192 29.8018 145.706 29.9572C145.083 30.155 144.327 30.334 142.651 30.5836C141.74 30.7202 141.098 30.8851 140.678 31.0876C140.541 31.1583 140.367 31.1206 140.277 30.9887C140.173 30.8333 140.23 30.626 140.395 30.5412C140.876 30.301 141.566 30.1221 142.557 29.976C144.19 29.7358 144.922 29.5616 145.517 29.3732C145.942 29.2413 146.843 28.7279 147.504 28.3558C147.788 28.1956 148.028 28.0591 148.189 27.979C148.779 27.6728 151.592 26.9239 152.669 27.0511C153.046 27.0935 153.448 27.2395 153.773 27.4515C153.986 27.5881 154.34 27.8754 154.359 28.238C154.363 28.3511 154.345 28.7326 153.778 28.8645C153.009 29.0435 151.715 29.75 150.71 30.5507C150.223 30.9369 149.662 31.4456 149.067 31.9872C148.481 32.5147 147.821 33.1176 147.122 33.7017C145.89 34.7285 143.624 35.6045 142.93 35.8636C142.925 36.5607 142.906 38.8686 142.93 41.3084C142.954 43.4279 143.256 46.0891 143.43 47.4927C143.449 47.6434 143.345 47.8082 143.194 47.8412C143.166 47.8365 143.147 47.8365 143.124 47.8365Z" fill="#0084AA"/>
<path d="M152.291 27.6446C152.234 27.6446 152.183 27.6304 152.131 27.5975C151.984 27.508 151.942 27.3196 152.031 27.1783C152.05 27.1453 154.09 23.853 154.595 22.9204C155.157 21.8795 155.766 20.311 155.737 19.9766C155.732 19.9107 155.718 19.8683 155.709 19.8447C155.676 19.8542 155.605 19.8824 155.492 19.9813C155.081 20.3346 154.453 21.0694 154.227 21.5168C154.005 21.9548 153.641 22.5059 153.4 22.8686C153.349 22.9439 153.306 23.0099 153.273 23.0664C153.061 23.3961 152.258 24.4747 152.003 24.7809C151.81 25.0164 151.276 25.8877 151.017 26.3964C150.946 26.533 150.78 26.6084 150.634 26.5565C150.455 26.4906 150.379 26.2928 150.464 26.1279C150.724 25.6192 151.286 24.6867 151.531 24.3899C151.791 24.0744 152.574 23.0193 152.758 22.732C152.796 22.6755 152.839 22.6095 152.891 22.5295C153.122 22.1762 153.476 21.644 153.679 21.2389C153.967 20.6643 154.699 19.8542 155.095 19.515C155.482 19.1806 155.775 19.1948 155.954 19.2701C156.087 19.3219 156.318 19.4821 156.356 19.9248C156.408 20.523 155.61 22.3552 155.142 23.2124C154.628 24.1638 152.645 27.3667 152.56 27.5033C152.494 27.5928 152.395 27.6446 152.291 27.6446Z" fill="#0084AA"/>
<path d="M149.114 25.5439C149.039 25.5439 148.958 25.5156 148.897 25.4544C148.788 25.3461 148.779 25.1765 148.869 25.0493C149.133 24.682 149.794 23.7729 150.412 23.0617C151.234 22.115 151.8 21.4462 152.093 21.0175C152.206 20.8527 152.386 20.5512 152.574 20.2357C152.914 19.6658 153.264 19.0817 153.476 18.8415C153.509 18.8038 153.547 18.7614 153.58 18.719C153.887 18.3658 154.307 17.8854 154.954 17.8053C155.331 17.7582 155.567 17.8854 155.695 18.0031C155.917 18.2009 155.978 18.4741 155.978 18.606C155.978 18.7285 155.936 19.1759 155.902 19.4491C155.888 19.5951 155.775 19.7129 155.629 19.727C155.426 19.7458 155.27 19.5763 155.289 19.3879C155.327 19.0393 155.36 18.6861 155.36 18.6107C155.355 18.5872 155.336 18.5071 155.279 18.46C155.227 18.4176 155.142 18.4035 155.024 18.4176C154.614 18.4694 154.312 18.818 154.043 19.1241C154.005 19.1665 153.967 19.2089 153.929 19.2513C153.755 19.4444 153.391 20.0567 153.094 20.5513C152.9 20.8762 152.716 21.1824 152.593 21.3661C152.286 21.8182 151.706 22.5059 150.87 23.4668C150.266 24.1591 149.614 25.0588 149.36 25.4167C149.303 25.4968 149.208 25.5439 149.114 25.5439Z" fill="#0084AA"/>
<path d="M154.864 18.2198C154.755 18.2198 154.651 18.1633 154.595 18.0644C154.439 17.7865 154.316 17.6028 153.929 17.4426C153.759 17.3673 153.5 17.5368 153.315 17.7158C153.207 17.8241 153.032 17.843 152.91 17.7488C152.758 17.6357 152.749 17.4191 152.876 17.2872C153.306 16.8586 153.778 16.7126 154.17 16.8774C154.722 17.1129 154.939 17.4285 155.124 17.7582C155.194 17.8854 155.175 18.0455 155.067 18.1444C155.01 18.1962 154.935 18.2198 154.864 18.2198Z" fill="#0084AA"/>
<path d="M136.977 49.1035C136.817 49.1035 136.68 48.981 136.67 48.8162C136.524 46.513 136.477 39.3113 136.477 37.8041C136.482 36.9328 136.651 33.5274 136.727 32.1003C136.736 31.9307 136.878 31.8035 137.048 31.8083C137.218 31.8177 137.345 31.959 137.341 32.1285C137.284 33.2354 137.095 36.9186 137.09 37.7994C137.086 39.6929 137.142 46.5931 137.279 48.7738C137.289 48.9434 137.161 49.0894 136.991 49.0988C136.991 49.1035 136.982 49.1035 136.977 49.1035Z" fill="#0084AA"/>
<path d="M119.751 27.6446C119.648 27.6446 119.548 27.5928 119.492 27.4986C119.407 27.362 117.424 24.1592 116.91 23.2077C116.447 22.3505 115.644 20.5183 115.696 19.9201C115.734 19.4774 115.965 19.322 116.098 19.2654C116.277 19.1948 116.565 19.1807 116.957 19.5104C117.349 19.8495 118.08 20.6596 118.373 21.2342C118.576 21.6393 118.93 22.1715 119.161 22.5248C119.213 22.6001 119.256 22.6708 119.293 22.7273C119.482 23.0146 120.261 24.0697 120.521 24.3852C120.762 24.6773 121.319 25.6004 121.583 26.1138C121.649 26.2457 121.621 26.4058 121.507 26.5001C121.352 26.6272 121.125 26.5707 121.04 26.4011C120.78 25.8972 120.242 25.0164 120.049 24.7762C119.794 24.47 118.991 23.3914 118.779 23.0617C118.741 23.0052 118.699 22.9393 118.647 22.8639C118.406 22.5012 118.042 21.9502 117.821 21.5121C117.594 21.06 116.966 20.3299 116.555 19.9766C116.442 19.8777 116.371 19.8495 116.338 19.8401C116.329 19.8636 116.315 19.906 116.31 19.9719C116.282 20.3064 116.886 21.8748 117.452 22.9157C117.958 23.8483 119.997 27.1406 120.016 27.1736C120.105 27.3196 120.058 27.508 119.917 27.5928C119.86 27.6305 119.803 27.6446 119.751 27.6446Z" fill="#0084AA"/>
<path d="M122.928 25.5439C122.834 25.5439 122.74 25.5015 122.678 25.4167C122.423 25.0635 121.772 24.1639 121.168 23.4668C120.332 22.5059 119.751 21.8183 119.445 21.3661C119.322 21.1871 119.138 20.8763 118.944 20.5513C118.651 20.0567 118.283 19.4444 118.109 19.2513C118.071 19.2089 118.038 19.1665 117.995 19.1241C117.726 18.8133 117.419 18.4647 117.013 18.4176C116.895 18.4035 116.81 18.4176 116.758 18.46C116.702 18.5071 116.683 18.5872 116.678 18.6107C116.678 18.6814 116.711 19.0299 116.749 19.3785C116.768 19.5339 116.669 19.6846 116.518 19.7223C116.334 19.7647 116.159 19.6422 116.14 19.4585C116.107 19.1901 116.065 18.7332 116.065 18.6107C116.065 18.4788 116.126 18.2057 116.348 18.0078C116.48 17.8948 116.716 17.7629 117.089 17.81C117.731 17.8901 118.151 18.3705 118.463 18.7238C118.5 18.7662 118.533 18.8038 118.566 18.8462C118.779 19.0864 119.133 19.6705 119.468 20.2404C119.657 20.556 119.836 20.8574 119.95 21.0223C120.242 21.4509 120.809 22.1197 121.63 23.0664C122.249 23.7729 122.91 24.6867 123.174 25.0541C123.264 25.1765 123.254 25.3508 123.146 25.4544C123.079 25.5156 123.004 25.5439 122.928 25.5439Z" fill="#0084AA"/>
<path d="M124 24.1733C123.901 24.1733 123.802 24.1262 123.745 24.0367C123.467 23.6128 123.023 23.1465 122.806 22.9393C122.47 22.619 121.668 21.7194 121.083 21.0599C120.889 20.8433 120.724 20.6596 120.629 20.5513C120.233 20.1179 119.265 18.5259 119.024 18.102C118.803 17.7111 118.354 17.339 118.113 17.4426C117.731 17.6028 117.608 17.7818 117.452 18.0549C117.377 18.1915 117.207 18.2575 117.065 18.1962C116.891 18.1256 116.825 17.9231 116.914 17.7629C117.103 17.4332 117.315 17.1129 117.873 16.8774C118.557 16.5854 119.27 17.2872 119.563 17.8006C119.808 18.2386 120.747 19.7647 121.087 20.1368C121.186 20.2451 121.342 20.4241 121.545 20.6502C122.093 21.2625 122.919 22.1904 123.235 22.4965C123.471 22.7226 123.948 23.2219 124.255 23.6929C124.34 23.82 124.326 23.9896 124.217 24.0932C124.151 24.145 124.076 24.1733 124 24.1733Z" fill="#0084AA"/>
<path d="M135.065 49.1035C135.061 49.1035 135.051 49.1035 135.046 49.1035C134.876 49.0941 134.749 48.9481 134.758 48.7785C134.895 46.5978 134.952 39.6976 134.947 37.8041C134.947 36.9893 134.787 33.7865 134.716 32.4347C134.707 32.2792 134.815 32.1332 134.966 32.105C135.15 32.072 135.316 32.2086 135.325 32.3923C135.396 33.7441 135.556 36.9704 135.561 37.8041C135.566 39.3113 135.514 46.513 135.367 48.8162C135.363 48.9763 135.226 49.1035 135.065 49.1035Z" fill="#0084AA"/>
<path d="M124.642 22.9816C124.552 22.9816 124.467 22.944 124.406 22.8733C124.397 22.8639 123.585 21.8936 123.065 21.4132C122.485 20.8715 122.06 20.3581 121.687 19.8871C121.541 19.6987 121.399 19.4774 121.253 19.2466C120.993 18.8368 120.729 18.4176 120.445 18.2292C120.03 17.956 119.638 18.0832 119.468 18.201C119.312 18.3093 119.095 18.2575 119.01 18.0738C118.949 17.9372 119.006 17.7723 119.128 17.6876C119.525 17.4191 120.186 17.3202 120.78 17.7158C121.172 17.9749 121.474 18.4553 121.767 18.9169C121.904 19.1382 122.036 19.3455 122.164 19.5056C122.522 19.9625 122.928 20.4524 123.481 20.961C124.024 21.465 124.836 22.4353 124.873 22.4777C124.982 22.6095 124.963 22.8027 124.836 22.911C124.779 22.9581 124.713 22.9816 124.642 22.9816Z" fill="#0084AA"/>
<path d="M124.689 28.9869C124.59 28.9869 124.491 28.9351 124.43 28.8456C124.359 28.7373 122.74 26.1515 123.887 23.4668C124.156 22.8356 124.812 21.823 126.393 20.5984C127.465 19.7694 128.711 19.0582 129.726 18.6908C129.896 18.6296 130.09 18.7285 130.132 18.9122C130.165 19.0629 130.071 19.2183 129.924 19.2701C128.149 19.9154 125.218 21.9077 124.453 23.7023C123.434 26.0855 124.935 28.4877 124.949 28.5112C125.039 28.6525 124.996 28.8409 124.854 28.9351C124.803 28.9728 124.746 28.9869 124.689 28.9869Z" fill="#0084AA"/>
<path d="M130.217 24.437C130.123 24.437 130.033 24.3947 129.972 24.3146C129.868 24.178 129.896 23.9896 130.028 23.886C131.256 22.9581 132.294 21.6346 132.582 21.173C132.771 20.8715 133.158 20.0473 132.714 18.8745C132.323 17.8383 131.166 17.0941 129.467 16.7738C127.932 16.4865 125.624 16.7361 124.382 16.868C123.542 16.9575 123.448 16.9669 123.32 16.8963C123.089 16.7691 123.056 16.6278 122.999 16.3735C122.976 16.2793 122.947 16.1474 122.895 15.9637C122.688 15.2007 122.56 14.951 122.499 14.8662C122.447 14.8898 122.315 14.9793 122.079 15.2854C121.781 15.6764 121.692 16.1756 121.706 16.5101C121.72 16.8445 122.183 18.2999 122.31 18.526C122.461 18.7991 122.64 18.9357 122.711 18.9404C122.825 18.9499 123.141 18.9169 123.396 18.8933C123.641 18.8698 123.849 18.8509 123.976 18.8509C124.231 18.8509 124.911 18.9781 126.011 19.1854L126.209 19.223C127.092 19.3879 128.272 19.402 128.286 19.402C128.456 19.402 128.593 19.5433 128.589 19.7129C128.584 19.8824 128.447 20.019 128.277 20.0143C128.225 20.0143 127.031 20.0002 126.091 19.8212L125.893 19.7835C125.133 19.6422 124.189 19.4632 123.972 19.4632C123.873 19.4632 123.655 19.4821 123.448 19.5009C123.07 19.5339 122.815 19.5574 122.664 19.548C122.206 19.5151 121.89 19.0252 121.772 18.818C121.602 18.5165 121.111 16.9716 121.092 16.5289C121.073 16.0862 121.191 15.4315 121.588 14.9086C121.862 14.5507 122.225 14.1503 122.655 14.2492C122.985 14.3246 123.193 14.7155 123.485 15.7941C123.537 15.9872 123.57 16.1238 123.594 16.2227C123.603 16.2557 123.608 16.2887 123.618 16.3169C123.764 16.3075 124.042 16.2793 124.316 16.2463C125.591 16.1097 127.956 15.8554 129.58 16.1568C131.501 16.5148 132.818 17.4002 133.29 18.639C133.833 20.0661 133.342 21.0976 133.106 21.4791C132.79 21.9878 131.709 23.3632 130.406 24.357C130.349 24.4182 130.283 24.437 130.217 24.437Z" fill="#0084AA"/>
<path d="M137.312 26.3446C137.293 26.3446 137.275 26.3446 137.256 26.3399C137.19 26.3305 135.627 26.0196 134.338 23.2501C133.441 21.319 133.031 17.5086 132.922 16.3876L132.917 16.3452C132.875 15.9166 132.847 15.1441 133.102 14.7815C133.441 14.3011 134.168 13.9572 134.891 14.2351C135.339 14.4094 135.552 14.8851 135.693 15.196C135.703 15.2148 135.712 15.2383 135.721 15.2572C136.019 15.1536 136.25 15.1347 136.425 15.2054C136.628 15.2854 136.769 15.4268 136.826 15.6057C136.869 15.7423 136.854 15.8836 136.793 15.9967C136.618 16.3782 136.43 16.8586 136.415 16.9669C136.415 16.9858 136.274 18.7473 137.61 20.5607C138.578 21.8795 140.527 22.9487 140.98 23.057C141.122 23.09 141.226 23.2171 141.226 23.3632C141.221 23.5657 141.037 23.6976 140.853 23.6552C140.22 23.5139 138.157 22.3364 137.119 20.9234C135.622 18.8933 135.806 16.9151 135.811 16.8963C135.84 16.6561 136.104 16.0438 136.222 15.7847V15.78C136.198 15.7753 136.08 15.7753 135.84 15.8742C135.613 15.9637 135.358 15.8695 135.245 15.6575C135.212 15.5963 135.179 15.5257 135.146 15.4456C135.042 15.2101 134.895 14.8851 134.683 14.805C134.253 14.6402 133.814 14.8521 133.616 15.1347C133.522 15.2666 133.489 15.7659 133.541 16.2887L133.545 16.3311C133.649 17.4285 134.05 21.1542 134.905 22.9958C136.042 25.445 137.364 25.737 137.378 25.7417C137.544 25.77 137.652 25.9301 137.624 26.095C137.591 26.241 137.459 26.3446 137.312 26.3446Z" fill="#0084AA"/>
<path d="M128.919 47.8365C128.9 47.8365 128.876 47.8365 128.853 47.8318C128.702 47.7988 128.593 47.6387 128.612 47.4833C128.791 46.0797 129.089 43.4185 129.113 41.2943C129.141 38.8498 129.122 36.5418 129.113 35.8495C128.419 35.5951 126.153 34.7143 124.921 33.6876C124.222 33.1035 123.556 32.5053 122.976 31.9731C122.381 31.4315 121.819 30.9228 121.333 30.5365C120.323 29.7358 119.034 29.0293 118.264 28.8504C117.698 28.7185 117.674 28.337 117.684 28.2239C117.703 27.8612 118.061 27.5786 118.269 27.4373C118.59 27.2254 118.996 27.0794 119.374 27.037C120.45 26.9145 123.264 27.6634 123.854 27.9649C124.014 28.0496 124.255 28.1862 124.538 28.3417C125.199 28.7138 126.101 29.2272 126.526 29.359C127.149 29.5569 127.885 29.7641 129.476 29.9619C131.223 30.1786 132.71 31.6246 133.12 32.0673C133.139 32.0861 133.163 32.0956 133.191 32.0956C133.781 32.0861 135.873 32.0061 138.044 31.4126C139.635 30.9793 141.113 30.2681 142.439 29.2978C143.501 28.5206 144.464 27.5834 145.309 26.5C146.749 24.6537 147.344 23.0146 147.349 23.0005L147.405 22.8451L147.566 22.8027C151.196 21.8748 152.518 18.5683 152.716 17.372C152.881 16.3829 152.707 15.2336 152.23 14.2163C151.583 12.8362 150.431 11.6964 148.798 10.8297C147.603 10.1986 145.574 9.65695 143.784 10.2127C142.576 10.5895 141.627 11.4279 140.966 12.7043C140.716 13.1848 140.452 14.0797 140.291 14.7532C140.206 15.1017 139.762 15.1912 139.437 15.2572C139.394 15.2666 139.347 15.276 139.333 15.2807C139.045 15.3608 139.035 15.3938 139.002 15.601C139.012 15.6952 139.153 15.9496 139.205 16.0343C139.22 16.0579 139.234 16.0862 139.243 16.105C139.356 16.3075 139.234 16.4818 139.087 16.7032C138.814 17.1082 138.242 17.9466 138.464 19.2183C138.615 20.085 139.13 20.7161 139.998 21.107C140.711 21.4273 141.429 21.465 141.585 21.4603C141.755 21.4509 141.896 21.5828 141.906 21.7523C141.915 21.9219 141.783 22.0632 141.613 22.0726C140.928 22.1056 138.275 21.7288 137.86 19.3267C137.596 17.81 138.285 16.7974 138.577 16.364C138.596 16.3358 138.615 16.3075 138.634 16.2793C138.478 15.9967 138.356 15.7423 138.393 15.5162C138.474 15.0405 138.667 14.8333 139.168 14.692C139.21 14.6826 139.257 14.6684 139.319 14.659C139.399 14.6449 139.621 14.5978 139.71 14.5507C139.81 14.1456 140.098 13.0529 140.423 12.4217C141.16 10.9946 142.231 10.0573 143.605 9.62869C145.574 9.01638 147.788 9.60043 149.09 10.2881C150.842 11.216 152.083 12.45 152.792 13.9525C153.316 15.0782 153.514 16.3593 153.325 17.4662C153.197 18.2104 152.763 19.4114 151.918 20.5513C150.894 21.9313 149.501 22.8969 147.877 23.349C147.693 23.8106 147.07 25.2378 145.819 26.8486C144.436 28.6243 141.995 30.9604 138.219 31.9919C135.976 32.6042 133.819 32.6843 133.21 32.6985C133.012 32.7032 132.823 32.6231 132.686 32.4771C132.308 32.0767 130.954 30.7532 129.41 30.5601C127.767 30.3576 126.998 30.1409 126.351 29.9337C125.865 29.7829 124.968 29.2743 124.245 28.8645C123.972 28.7091 123.731 28.5725 123.585 28.4971C123.079 28.238 120.37 27.5268 119.454 27.6305C118.887 27.6964 118.411 28.0402 118.321 28.2051C118.34 28.2145 118.368 28.2239 118.415 28.2333C119.421 28.4641 120.837 29.3308 121.729 30.0373C122.23 30.4329 122.801 30.951 123.405 31.4974C123.986 32.0249 124.642 32.6184 125.331 33.193C126.681 34.3187 129.509 35.3078 129.537 35.3172L129.74 35.3879L129.745 35.6045C129.745 35.6328 129.778 38.3599 129.745 41.2754C129.721 43.4326 129.415 46.1268 129.235 47.5445C129.202 47.7235 129.07 47.8365 128.919 47.8365Z" fill="#0084AA"/>
<path d="M145.04 19.4585C144.828 19.4585 144.577 19.4303 144.403 19.3314C144.238 19.2372 144.176 19.0252 144.285 18.8698C144.384 18.7332 144.573 18.7049 144.71 18.8038C144.766 18.8321 144.998 18.8698 145.319 18.8321C145.644 18.7897 145.928 18.6861 146.088 18.5542C146.258 18.4129 146.352 18.2339 146.357 18.0549C146.362 17.9184 146.315 17.7959 146.225 17.7111C146.074 17.5651 145.781 17.7441 145.777 17.7488C145.621 17.8477 145.404 17.7912 145.328 17.6122C145.267 17.4709 145.328 17.306 145.456 17.226C145.72 17.0611 146.253 16.8963 146.645 17.2684C146.862 17.4709 146.976 17.7676 146.966 18.0738C146.957 18.4317 146.782 18.7709 146.475 19.0205C146.126 19.3125 145.625 19.4067 145.356 19.4397C145.29 19.4491 145.172 19.4585 145.04 19.4585Z" fill="#0084AA"/>
</svg>
