<svg xmlns="http://www.w3.org/2000/svg" width="24" height="25" viewBox="0 0 24 25" fill="none">
    <path d="M18.71 8.41689C18.617 8.32316 18.5064 8.24877 18.3846 8.198C18.2627 8.14723 18.132 8.12109 18 8.12109C17.868 8.12109 17.7373 8.14723 17.6154 8.198C17.4936 8.24877 17.383 8.32316 17.29 8.41689L12.71 12.9969C12.617 13.0906 12.5064 13.165 12.3846 13.2158C12.2627 13.2665 12.132 13.2927 12 13.2927C11.868 13.2927 11.7373 13.2665 11.6154 13.2158C11.4936 13.165 11.383 13.0906 11.29 12.9969L6.71 8.41689C6.61704 8.32316 6.50644 8.24877 6.38458 8.198C6.26272 8.14723 6.13201 8.12109 6 8.12109C5.86799 8.12109 5.73728 8.14723 5.61542 8.198C5.49356 8.24877 5.38296 8.32316 5.29 8.41689C5.10375 8.60425 4.99921 8.8577 4.99921 9.12189C4.99921 9.38608 5.10375 9.63953 5.29 9.82689L9.88 14.4169C10.4425 14.9787 11.205 15.2942 12 15.2942C12.795 15.2942 13.5575 14.9787 14.12 14.4169L18.71 9.82689C18.8963 9.63953 19.0008 9.38608 19.0008 9.12189C19.0008 8.8577 18.8963 8.60425 18.71 8.41689Z" fill="#B2D2DC"/>
</svg>