<svg xmlns="http://www.w3.org/2000/svg" width="24" height="25" viewBox="0 0 24 25" fill="none">
<g clip-path="url(#clip0_31_68)">
<path d="M24 12.2803C24 18.2693 19.606 23.2343 13.87 24.1353V15.7723H16.659L17.19 12.3123H13.87V10.0673C13.87 9.12027 14.334 8.19827 15.82 8.19827H17.329V5.25227C17.329 5.25227 15.959 5.01827 14.65 5.01827C11.916 5.01827 10.13 6.67527 10.13 9.67427V12.3113H7.091V15.7713H10.13V24.1343C4.395 23.2323 0 18.2683 0 12.2803C0 5.65327 5.373 0.280273 12 0.280273C18.627 0.280273 24 5.65227 24 12.2803Z" fill="#0084AA"/>
</g>
<defs>
<clipPath id="clip0_31_68">
<rect width="24" height="24" fill="white" transform="translate(0 0.207031)"/>
</clipPath>
</defs>
</svg>