<svg xmlns="http://www.w3.org/2000/svg" width="24" height="25" viewBox="0 0 24 25" fill="none">
<g clip-path="url(#clip0_31_71)">
<path d="M14.2969 12.207C14.2969 13.4756 13.2686 14.5039 12 14.5039C10.7314 14.5039 9.70312 13.4756 9.70312 12.207C9.70312 10.9385 10.7314 9.91016 12 9.91016C13.2686 9.91016 14.2969 10.9385 14.2969 12.207Z" fill="#0084AA"/>
<path d="M17.3716 8.14325C17.2612 7.84406 17.085 7.57324 16.8561 7.35095C16.6339 7.12207 16.3632 6.94592 16.0638 6.83551C15.821 6.74121 15.4563 6.62897 14.7845 6.59839C14.0577 6.56525 13.8398 6.55811 12 6.55811C10.16 6.55811 9.94208 6.56506 9.21552 6.59821C8.5437 6.62897 8.17877 6.74121 7.93616 6.83551C7.63678 6.94592 7.36597 7.12207 7.14386 7.35095C6.91498 7.57324 6.73883 7.84387 6.62823 8.14325C6.53394 8.38605 6.42169 8.75098 6.39111 9.42279C6.35797 10.1494 6.35083 10.3672 6.35083 12.2073C6.35083 14.0471 6.35797 14.265 6.39111 14.9918C6.42169 15.6636 6.53394 16.0283 6.62823 16.2711C6.73883 16.5705 6.91479 16.8411 7.14368 17.0634C7.36597 17.2923 7.6366 17.4684 7.93597 17.5789C8.17877 17.6733 8.5437 17.7856 9.21552 17.8162C9.94208 17.8493 10.1598 17.8563 11.9998 17.8563C13.84 17.8563 14.0579 17.8493 14.7843 17.8162C15.4561 17.7856 15.821 17.6733 16.0638 17.5789C16.6648 17.347 17.1398 16.8721 17.3716 16.2711C17.4659 16.0283 17.5781 15.6636 17.6089 14.9918C17.642 14.265 17.649 14.0471 17.649 12.2073C17.649 10.3672 17.642 10.1494 17.6089 9.42279C17.5783 8.75098 17.4661 8.38605 17.3716 8.14325ZM12 15.7454C10.0457 15.7454 8.46149 14.1614 8.46149 12.2071C8.46149 10.2528 10.0457 8.66876 12 8.66876C13.9541 8.66876 15.5383 10.2528 15.5383 12.2071C15.5383 14.1614 13.9541 15.7454 12 15.7454ZM15.6782 9.35577C15.2216 9.35577 14.8513 8.98553 14.8513 8.52887C14.8513 8.0722 15.2216 7.70197 15.6782 7.70197C16.1349 7.70197 16.5051 8.0722 16.5051 8.52887C16.5049 8.98553 16.1349 9.35577 15.6782 9.35577Z" fill="#0084AA"/>
<path d="M12 0.207031C5.3736 0.207031 0 5.58063 0 12.207C0 18.8334 5.3736 24.207 12 24.207C18.6264 24.207 24 18.8334 24 12.207C24 5.58063 18.6264 0.207031 12 0.207031ZM18.8491 15.0479C18.8157 15.7814 18.6991 16.2822 18.5288 16.7206C18.1708 17.6462 17.4391 18.3779 16.5135 18.7358C16.0754 18.9061 15.5744 19.0226 14.8411 19.0561C14.1063 19.0896 13.8715 19.0977 12.0002 19.0977C10.1287 19.0977 9.8941 19.0896 9.15912 19.0561C8.42578 19.0226 7.9248 18.9061 7.48663 18.7358C7.02667 18.5628 6.61029 18.2916 6.26605 17.941C5.91559 17.5969 5.64441 17.1804 5.47137 16.7206C5.30109 16.2824 5.18445 15.7814 5.15112 15.0481C5.11725 14.3131 5.10938 14.0784 5.10938 12.207C5.10938 10.3357 5.11725 10.101 5.15094 9.36615C5.18427 8.63263 5.30072 8.13184 5.47101 7.69348C5.64404 7.2337 5.91541 6.81714 6.26605 6.47308C6.61011 6.12244 7.02667 5.85126 7.48645 5.67822C7.9248 5.50793 8.4256 5.39148 9.15912 5.35797C9.89392 5.32446 10.1287 5.31641 12 5.31641C13.8713 5.31641 14.1061 5.32446 14.8409 5.35815C15.5744 5.39148 16.0752 5.50793 16.5135 5.67804C16.9733 5.85107 17.3899 6.12244 17.7341 6.47308C18.0846 6.81732 18.356 7.2337 18.5288 7.69348C18.6993 8.13184 18.8157 8.63263 18.8492 9.36615C18.8828 10.101 18.8906 10.3357 18.8906 12.207C18.8906 14.0784 18.8828 14.3131 18.8491 15.0479Z" fill="#0084AA"/>
</g>
<defs>
<clipPath id="clip0_31_71">
<rect width="24" height="24" fill="white" transform="translate(0 0.207031)"/>
</clipPath>
</defs>
</svg>